ffmpeg started on 2025-06-06 at 19:46:49
Report written to "D:\Convert\FFMetrics\reports\psnr_report-6.txt"
Log level: 32
Command line:
ffmpeg -hide_banner -nostdin -i "G:\\\xc0\xed\xe8\xec\xe5\\\xce\xed\xe3\xee\xe8\xed\xe3\xe8\\!_36_\xce\xf1\xe5\xed\xfc_2024\\DreamCast\\\xd0\xee\xed \xca\xe0\xec\xee\xed\xee\xf5\xe0\xf1\xe8 - \xcd\xe5\xe2\xec\xe5\xed\xff\xe5\xec\xfb\xe9 \xe4\xe5\xf2\xe5\xea\xf2\xe8\xe2\\\xd2\xc2-2\\DC_Kamonohashi_Ron_no_Kindan_Suiri_2nd_Season_05_Telegram_HEVC.mkv" -i "G:\\\xc0\xed\xe8\xec\xe5\\\xce\xed\xe3\xee\xe8\xed\xe3\xe8\\!_36_\xce\xf1\xe5\xed\xfc_2024\\DreamCast\\\xd0\xee\xed \xca\xe0\xec\xee\xed\xee\xf5\xe0\xf1\xe8 - \xcd\xe5\xe2\xec\xe5\xed\xff\xe5\xec\xfb\xe9 \xe4\xe5\xf2\xe5\xea\xf2\xe8\xe2\\\xd2\xc2-2\\DC_Kamonohashi_Ron_no_Kindan_Suiri_2nd_Season_05_Telegram.mp4" -lavfi "[0:v]settb=AVTB,setpts=PTS-STARTPTS,format=pix_fmts=yuv420p10,fps=24000/1001,scale=1920:1080:flags=bicubic[main];[1:v]settb=AVTB,setpts=PTS-STARTPTS,format=pix_fmts=yuv420p,fps=24000/1001,scale=1920:1080:flags=bicubic[ref];[main][ref]psnr=eof_action=endall:stats_file='D\\:/Convert/FFMetrics/logs/psnr_logfile-6.txt'" -f null -
Input #0, matroska,webm, from 'G:\Аниме\Онгоинги\!_36_Осень_2024\DreamCast\Рон Камонохаси - Невменяемый детектив\ТВ-2\DC_Kamonohashi_Ron_no_Kindan_Suiri_2nd_Season_05_Telegram_HEVC.mkv':
  Metadata:
    COMPATIBLE_BRANDS: isomiso2avc1mp41
    MAJOR_BRAND     : isom
    MINOR_VERSION   : 512
    ENCODER         : Lavf61.7.100
  Duration: 00:23:46.69, start: -0.021000, bitrate: 774 kb/s
  Stream #0:0: Video: hevc (Main 10), yuv420p10le(tv, bt709, progressive), 1920x1080 [SAR 1:1 DAR 16:9], 23.98 fps, 23.98 tbr, 1k tbn (default)
      Metadata:
        HANDLER_NAME    : VideoHandler
        VENDOR_ID       : [0][0][0][0]
        ENCODER         : Lavc61.19.100 libx265
        BPS             : 576964
        DURATION        : 00:23:46.591708333
        NUMBER_OF_FRAMES: 34204
        NUMBER_OF_BYTES : 102886496
        _STATISTICS_WRITING_APP: mkvpropedit v66.0.0 ('Josie') 64-bit
        _STATISTICS_WRITING_DATE_UTC: 2025-06-04 07:35:26
        _STATISTICS_TAGS: BPS DURATION NUMBER_OF_FRAMES NUMBER_OF_BYTES
  Stream #0:1: Audio: aac (LC), 48000 Hz, stereo, fltp (default)
      Metadata:
        HANDLER_NAME    : SoundHandler
        VENDOR_ID       : [0][0][0][0]
        ENCODER         : Lavc61.19.100 aac
        BPS             : 193206
        DURATION        : 00:23:46.688000000
        NUMBER_OF_FRAMES: 66877
        NUMBER_OF_BYTES : 34455759
        _STATISTICS_WRITING_APP: mkvpropedit v66.0.0 ('Josie') 64-bit
        _STATISTICS_WRITING_DATE_UTC: 2025-06-04 07:35:26
        _STATISTICS_TAGS: BPS DURATION NUMBER_OF_FRAMES NUMBER_OF_BYTES
Input #1, mov,mp4,m4a,3gp,3g2,mj2, from 'G:\Аниме\Онгоинги\!_36_Осень_2024\DreamCast\Рон Камонохаси - Невменяемый детектив\ТВ-2\DC_Kamonohashi_Ron_no_Kindan_Suiri_2nd_Season_05_Telegram.mp4':
  Metadata:
    major_brand     : isom
    minor_version   : 512
    compatible_brands: isomiso2avc1mp41
    encoder         : Lavf61.1.100
  Duration: 00:23:46.66, start: 0.000000, bitrate: 3402 kb/s
  Stream #1:0[0x1](und): Video: h264 (High) (avc1 / 0x31637661), yuv420p(tv, bt709, progressive), 1920x1080 [SAR 1:1 DAR 16:9], 3254 kb/s, 23.98 fps, 23.98 tbr, 24k tbn (default)
      Metadata:
        handler_name    : VideoHandler
        vendor_id       : [0][0][0][0]
        encoder         : Lavc61.3.100 h264_qsv
  Stream #1:1[0x2](und): Audio: aac (HE-AACv2) (mp4a / 0x6134706D), 48000 Hz, stereo, fltp, 144 kb/s (default)
      Metadata:
        handler_name    : SoundHandler
        vendor_id       : [0][0][0][0]
Stream mapping:
  Stream #0:0 (hevc) -> settb:default
  Stream #1:0 (h264) -> settb:default
  psnr:default -> Stream #0:0 (wrapped_avframe)
  Stream #0:1 -> #0:1 (aac (native) -> pcm_s16le (native))
Output #0, null, to 'pipe:':
  Metadata:
    COMPATIBLE_BRANDS: isomiso2avc1mp41
    MAJOR_BRAND     : isom
    MINOR_VERSION   : 512
    encoder         : Lavf61.7.100
  Stream #0:0: Video: wrapped_avframe, yuv420p10le(tv, bt709, progressive), 1920x1080 [SAR 1:1 DAR 16:9], q=2-31, 200 kb/s, 23.98 fps, 23.98 tbn
      Metadata:
        encoder         : Lavc61.19.100 wrapped_avframe
  Stream #0:1: Audio: pcm_s16le, 48000 Hz, stereo, s16, 1536 kb/s (default)
      Metadata:
        HANDLER_NAME    : SoundHandler
        VENDOR_ID       : [0][0][0][0]
        _STATISTICS_TAGS: BPS DURATION NUMBER_OF_FRAMES NUMBER_OF_BYTES
        BPS             : 193206
        DURATION        : 00:23:46.688000000
        NUMBER_OF_FRAMES: 66877
        NUMBER_OF_BYTES : 34455759
        _STATISTICS_WRITING_APP: mkvpropedit v66.0.0 ('Josie') 64-bit
        _STATISTICS_WRITING_DATE_UTC: 2025-06-04 07:35:26
        encoder         : Lavc61.19.100 pcm_s16le
frame=  168 fps=0.0 q=-0.0 size=N/A time=00:00:07.00 bitrate=N/A speed=13.6x    frame=  431 fps=418 q=-0.0 size=N/A time=00:00:17.97 bitrate=N/A speed=17.4x    frame=  698 fps=454 q=-0.0 size=N/A time=00:00:29.11 bitrate=N/A speed=18.9x    frame=  985 fps=477 q=-0.0 size=N/A time=00:00:41.08 bitrate=N/A speed=19.9x    frame= 1247 fps=484 q=-0.0 size=N/A time=00:00:52.01 bitrate=N/A speed=20.2x    frame= 1485 fps=481 q=-0.0 size=N/A time=00:01:01.93 bitrate=N/A speed=20.1x    frame= 1716 fps=476 q=-0.0 size=N/A time=00:01:11.57 bitrate=N/A speed=19.8x    frame= 1966 fps=478 q=-0.0 size=N/A time=00:01:21.99 bitrate=N/A speed=19.9x    frame= 2222 fps=479 q=-0.0 size=N/A time=00:01:32.67 bitrate=N/A speed=  20x    frame= 2492 fps=483 q=-0.0 size=N/A time=00:01:43.93 bitrate=N/A speed=20.2x    frame= 2670 fps=471 q=-0.0 size=N/A time=00:01:51.36 bitrate=N/A speed=19.6x    frame= 2879 fps=465 q=-0.0 size=N/A time=00:02:00.07 bitrate=N/A speed=19.4x    frame= 3073 fps=459 q=-0.0 size=N/A time=00:02:08.16 bitrate=N/A speed=19.2x    frame= 3290 fps=456 q=-0.0 size=N/A time=00:02:17.22 bitrate=N/A speed=  19x    frame= 3525 fps=456 q=-0.0 size=N/A time=00:02:27.02 bitrate=N/A speed=  19x    frame= 3783 fps=459 q=-0.0 size=N/A time=00:02:37.78 bitrate=N/A speed=19.1x    frame= 4063 fps=463 q=-0.0 size=N/A time=00:02:49.46 bitrate=N/A speed=19.3x    frame= 4323 fps=465 q=-0.0 size=N/A time=00:03:00.30 bitrate=N/A speed=19.4x    frame= 4580 fps=467 q=-0.0 size=N/A time=00:03:11.02 bitrate=N/A speed=19.5x    frame= 4831 fps=468 q=-0.0 size=N/A time=00:03:21.49 bitrate=N/A speed=19.5x    frame= 5107 fps=471 q=-0.0 size=N/A time=00:03:33.00 bitrate=N/A speed=19.6x    frame= 5375 fps=473 q=-0.0 size=N/A time=00:03:44.18 bitrate=N/A speed=19.7x    frame= 5642 fps=476 q=-0.0 size=N/A time=00:03:55.31 bitrate=N/A speed=19.8x    frame= 5908 fps=477 q=-0.0 size=N/A time=00:04:06.41 bitrate=N/A speed=19.9x    frame= 6149 fps=477 q=-0.0 size=N/A time=00:04:16.46 bitrate=N/A speed=19.9x    frame= 6395 fps=477 q=-0.0 size=N/A time=00:04:26.72 bitrate=N/A speed=19.9x    frame= 6675 fps=479 q=-0.0 size=N/A time=00:04:38.40 bitrate=N/A speed=  20x    frame= 6944 fps=481 q=-0.0 size=N/A time=00:04:49.62 bitrate=N/A speed=20.1x    frame= 7213 fps=482 q=-0.0 size=N/A time=00:05:00.84 bitrate=N/A speed=20.1x    frame= 7472 fps=483 q=-0.0 size=N/A time=00:05:11.64 bitrate=N/A speed=20.1x    frame= 7735 fps=484 q=-0.0 size=N/A time=00:05:22.61 bitrate=N/A speed=20.2x    frame= 8003 fps=485 q=-0.0 size=N/A time=00:05:33.79 bitrate=N/A speed=20.2x    frame= 8265 fps=485 q=-0.0 size=N/A time=00:05:44.71 bitrate=N/A speed=20.2x    frame= 8537 fps=487 q=-0.0 size=N/A time=00:05:56.06 bitrate=N/A speed=20.3x    frame= 8799 fps=487 q=-0.0 size=N/A time=00:06:06.99 bitrate=N/A speed=20.3x    frame= 9078 fps=489 q=-0.0 size=N/A time=00:06:18.62 bitrate=N/A speed=20.4x    frame= 9365 fps=490 q=-0.0 size=N/A time=00:06:30.59 bitrate=N/A speed=20.5x    frame= 9611 fps=490 q=-0.0 size=N/A time=00:06:40.85 bitrate=N/A speed=20.4x    frame= 9873 fps=491 q=-0.0 size=N/A time=00:06:51.78 bitrate=N/A speed=20.5x    frame=10122 fps=490 q=-0.0 size=N/A time=00:07:02.17 bitrate=N/A speed=20.5x    frame=10393 fps=491 q=-0.0 size=N/A time=00:07:13.47 bitrate=N/A speed=20.5x    frame=10646 fps=491 q=-0.0 size=N/A time=00:07:24.02 bitrate=N/A speed=20.5x    frame=10916 fps=492 q=-0.0 size=N/A time=00:07:35.28 bitrate=N/A speed=20.5x    frame=11181 fps=493 q=-0.0 size=N/A time=00:07:46.34 bitrate=N/A speed=20.5x    frame=11411 fps=492 q=-0.0 size=N/A time=00:07:55.93 bitrate=N/A speed=20.5x    frame=11637 fps=491 q=-0.0 size=N/A time=00:08:05.35 bitrate=N/A speed=20.5x    frame=11895 fps=491 q=-0.0 size=N/A time=00:08:16.12 bitrate=N/A speed=20.5x    frame=12134 fps=490 q=-0.0 size=N/A time=00:08:26.08 bitrate=N/A speed=20.4x    frame=12375 fps=490 q=-0.0 size=N/A time=00:08:36.14 bitrate=N/A speed=20.4x    frame=12605 fps=489 q=-0.0 size=N/A time=00:08:45.73 bitrate=N/A speed=20.4x    frame=12866 fps=489 q=-0.0 size=N/A time=00:08:56.61 bitrate=N/A speed=20.4x    frame=13083 fps=488 q=-0.0 size=N/A time=00:09:05.67 bitrate=N/A speed=20.3x    frame=13343 fps=488 q=-0.0 size=N/A time=00:09:16.51 bitrate=N/A speed=20.4x    frame=13549 fps=486 q=-0.0 size=N/A time=00:09:25.10 bitrate=N/A speed=20.3x    frame=13810 fps=487 q=-0.0 size=N/A time=00:09:35.99 bitrate=N/A speed=20.3x    frame=14082 fps=487 q=-0.0 size=N/A time=00:09:47.33 bitrate=N/A speed=20.3x    frame=14357 fps=488 q=-0.0 size=N/A time=00:09:58.80 bitrate=N/A speed=20.4x    frame=14623 fps=489 q=-0.0 size=N/A time=00:10:09.90 bitrate=N/A speed=20.4x    frame=14894 fps=489 q=-0.0 size=N/A time=00:10:21.20 bitrate=N/A speed=20.4x    frame=15167 fps=490 q=-0.0 size=N/A time=00:10:32.59 bitrate=N/A speed=20.4x    frame=15435 fps=490 q=-0.0 size=N/A time=00:10:43.76 bitrate=N/A speed=20.5x    frame=15683 fps=490 q=-0.0 size=N/A time=00:10:54.11 bitrate=N/A speed=20.5x    frame=15939 fps=491 q=-0.0 size=N/A time=00:11:04.78 bitrate=N/A speed=20.5x    frame=16198 fps=491 q=-0.0 size=N/A time=00:11:15.59 bitrate=N/A speed=20.5x    frame=16464 fps=491 q=-0.0 size=N/A time=00:11:26.68 bitrate=N/A speed=20.5x    frame=16721 fps=491 q=-0.0 size=N/A time=00:11:37.40 bitrate=N/A speed=20.5x    frame=16968 fps=491 q=-0.0 size=N/A time=00:11:47.70 bitrate=N/A speed=20.5x    frame=17222 fps=491 q=-0.0 size=N/A time=00:11:58.30 bitrate=N/A speed=20.5x    frame=17467 fps=491 q=-0.0 size=N/A time=00:12:08.51 bitrate=N/A speed=20.5x    frame=17698 fps=490 q=-0.0 size=N/A time=00:12:18.15 bitrate=N/A speed=20.4x    frame=17918 fps=489 q=-0.0 size=N/A time=00:12:27.32 bitrate=N/A speed=20.4x    frame=18142 fps=488 q=-0.0 size=N/A time=00:12:36.67 bitrate=N/A speed=20.4x    frame=18396 fps=489 q=-0.0 size=N/A time=00:12:47.26 bitrate=N/A speed=20.4x    frame=18677 fps=489 q=-0.0 size=N/A time=00:12:58.98 bitrate=N/A speed=20.4x    frame=18952 fps=490 q=-0.0 size=N/A time=00:13:10.45 bitrate=N/A speed=20.4x    frame=19213 fps=490 q=-0.0 size=N/A time=00:13:21.34 bitrate=N/A speed=20.4x    frame=19493 fps=491 q=-0.0 size=N/A time=00:13:33.02 bitrate=N/A speed=20.5x    frame=19779 fps=492 q=-0.0 size=N/A time=00:13:44.94 bitrate=N/A speed=20.5x    frame=20054 fps=492 q=-0.0 size=N/A time=00:13:56.41 bitrate=N/A speed=20.5x    frame=20311 fps=492 q=-0.0 size=N/A time=00:14:07.13 bitrate=N/A speed=20.5x    frame=20577 fps=493 q=-0.0 size=N/A time=00:14:18.23 bitrate=N/A speed=20.5x    frame=20840 fps=493 q=-0.0 size=N/A time=00:14:29.20 bitrate=N/A speed=20.6x    frame=21088 fps=493 q=-0.0 size=N/A time=00:14:39.54 bitrate=N/A speed=20.5x    frame=21340 fps=493 q=-0.0 size=N/A time=00:14:50.05 bitrate=N/A speed=20.5x    frame=21593 fps=493 q=-0.0 size=N/A time=00:15:00.60 bitrate=N/A speed=20.5x    frame=21841 fps=492 q=-0.0 size=N/A time=00:15:10.95 bitrate=N/A speed=20.5x    frame=22088 fps=492 q=-0.0 size=N/A time=00:15:21.25 bitrate=N/A speed=20.5x    frame=22365 fps=493 q=-0.0 size=N/A time=00:15:32.80 bitrate=N/A speed=20.6x    frame=22646 fps=493 q=-0.0 size=N/A time=00:15:44.52 bitrate=N/A speed=20.6x    frame=22926 fps=494 q=-0.0 size=N/A time=00:15:56.20 bitrate=N/A speed=20.6x    frame=23175 fps=494 q=-0.0 size=N/A time=00:16:06.59 bitrate=N/A speed=20.6x    frame=23420 fps=494 q=-0.0 size=N/A time=00:16:16.80 bitrate=N/A speed=20.6x    frame=23672 fps=493 q=-0.0 size=N/A time=00:16:27.31 bitrate=N/A speed=20.6x    frame=23909 fps=493 q=-0.0 size=N/A time=00:16:37.20 bitrate=N/A speed=20.6x    frame=24169 fps=493 q=-0.0 size=N/A time=00:16:48.04 bitrate=N/A speed=20.6x    frame=24454 fps=494 q=-0.0 size=N/A time=00:16:59.93 bitrate=N/A speed=20.6x    frame=24714 fps=494 q=-0.0 size=N/A time=00:17:10.77 bitrate=N/A speed=20.6x    frame=24959 fps=494 q=-0.0 size=N/A time=00:17:20.99 bitrate=N/A speed=20.6x    frame=25229 fps=494 q=-0.0 size=N/A time=00:17:32.25 bitrate=N/A speed=20.6x    frame=25467 fps=494 q=-0.0 size=N/A time=00:17:42.22 bitrate=N/A speed=20.6x    frame=25693 fps=493 q=-0.0 size=N/A time=00:17:51.61 bitrate=N/A speed=20.6x    frame=25926 fps=493 q=-0.0 size=N/A time=00:18:01.37 bitrate=N/A speed=20.5x    frame=26180 fps=493 q=-0.0 size=N/A time=00:18:11.92 bitrate=N/A speed=20.5x    frame=26462 fps=493 q=-0.0 size=N/A time=00:18:23.68 bitrate=N/A speed=20.6x    frame=26719 fps=493 q=-0.0 size=N/A time=00:18:34.40 bitrate=N/A speed=20.6x    frame=26997 fps=494 q=-0.0 size=N/A time=00:18:45.99 bitrate=N/A speed=20.6x    frame=27281 fps=494 q=-0.0 size=N/A time=00:18:57.84 bitrate=N/A speed=20.6x    frame=27515 fps=494 q=-0.0 size=N/A time=00:19:07.60 bitrate=N/A speed=20.6x    frame=27790 fps=494 q=-0.0 size=N/A time=00:19:19.07 bitrate=N/A speed=20.6x    frame=28077 fps=495 q=-0.0 size=N/A time=00:19:31.04 bitrate=N/A speed=20.6x    frame=28339 fps=495 q=-0.0 size=N/A time=00:19:41.97 bitrate=N/A speed=20.6x    frame=28611 fps=495 q=-0.0 size=N/A time=00:19:53.31 bitrate=N/A speed=20.7x    frame=28870 fps=495 q=-0.0 size=N/A time=00:20:04.11 bitrate=N/A speed=20.7x    frame=29098 fps=495 q=-0.0 size=N/A time=00:20:13.62 bitrate=N/A speed=20.6x    frame=29380 fps=495 q=-0.0 size=N/A time=00:20:25.39 bitrate=N/A speed=20.7x    frame=29649 fps=495 q=-0.0 size=N/A time=00:20:36.61 bitrate=N/A speed=20.7x    frame=29882 fps=495 q=-0.0 size=N/A time=00:20:46.32 bitrate=N/A speed=20.6x    frame=30144 fps=495 q=-0.0 size=N/A time=00:20:57.25 bitrate=N/A speed=20.7x    frame=30400 fps=495 q=-0.0 size=N/A time=00:21:07.93 bitrate=N/A speed=20.7x    frame=30621 fps=495 q=-0.0 size=N/A time=00:21:17.15 bitrate=N/A speed=20.6x    frame=30888 fps=495 q=-0.0 size=N/A time=00:21:28.28 bitrate=N/A speed=20.6x    frame=31132 fps=495 q=-0.0 size=N/A time=00:21:38.46 bitrate=N/A speed=20.6x    frame=31327 fps=494 q=-0.0 size=N/A time=00:21:46.59 bitrate=N/A speed=20.6x    frame=31584 fps=494 q=-0.0 size=N/A time=00:21:57.31 bitrate=N/A speed=20.6x    frame=31828 fps=494 q=-0.0 size=N/A time=00:22:07.49 bitrate=N/A speed=20.6x    frame=32053 fps=493 q=-0.0 size=N/A time=00:22:16.87 bitrate=N/A speed=20.6x    frame=32302 fps=493 q=-0.0 size=N/A time=00:22:27.26 bitrate=N/A speed=20.6x    frame=32569 fps=493 q=-0.0 size=N/A time=00:22:38.39 bitrate=N/A speed=20.6x    frame=32844 fps=494 q=-0.0 size=N/A time=00:22:49.86 bitrate=N/A speed=20.6x    frame=33122 fps=494 q=-0.0 size=N/A time=00:23:01.46 bitrate=N/A speed=20.6x    frame=33383 fps=494 q=-0.0 size=N/A time=00:23:12.34 bitrate=N/A speed=20.6x    frame=33655 fps=494 q=-0.0 size=N/A time=00:23:23.69 bitrate=N/A speed=20.6x    frame=33934 fps=495 q=-0.0 size=N/A time=00:23:35.33 bitrate=N/A speed=20.6x    [Parsed_psnr_10 @ 000001d0670d3d00] PSNR y:49.608113 u:50.451497 v:51.035772 average:49.951916 min:43.283549 max:inf
[out#0/null @ 000001d0673c5a00] video:14697KiB audio:267508KiB subtitle:0KiB other streams:0KiB global headers:0KiB muxing overhead: unknown
frame=34204 fps=495 q=-0.0 Lsize=N/A time=00:23:46.59 bitrate=N/A speed=20.6x    
